<svg width="800" height="1200" xmlns="http://www.w3.org/2000/svg">
  <defs>
    <linearGradient id="nightGradient" x1="0%" y1="0%" x2="100%" y2="100%">
      <stop offset="0%" style="stop-color:#3F51B5;stop-opacity:1" />
      <stop offset="50%" style="stop-color:#283593;stop-opacity:0.8" />
      <stop offset="100%" style="stop-color:#1A237E;stop-opacity:0.6" />
    </linearGradient>
    <radialGradient id="moonGradient" cx="50%" cy="50%" r="50%">
      <stop offset="0%" style="stop-color:#E8EAF6;stop-opacity:0.9" />
      <stop offset="70%" style="stop-color:#C5CAE9;stop-opacity:0.6" />
      <stop offset="100%" style="stop-color:#9FA8DA;stop-opacity:0.3" />
    </radialGradient>
    <radialGradient id="starGradient" cx="50%" cy="50%" r="50%">
      <stop offset="0%" style="stop-color:#FFFFFF;stop-opacity:1" />
      <stop offset="100%" style="stop-color:#E8EAF6;stop-opacity:0.3" />
    </radialGradient>
  </defs>
  
  <!-- Base night gradient -->
  <rect width="800" height="1200" fill="url(#nightGradient)"/>
  
  <!-- Moon -->
  <circle cx="600" cy="200" r="60" fill="url(#moonGradient)" opacity="0.8"/>
  <!-- Moon craters -->
  <circle cx="585" cy="185" r="8" fill="#C5CAE9" opacity="0.4"/>
  <circle cx="610" cy="210" r="6" fill="#C5CAE9" opacity="0.3"/>
  <circle cx="620" cy="180" r="4" fill="#C5CAE9" opacity="0.5"/>
  
  <!-- Moon glow -->
  <circle cx="600" cy="200" r="80" fill="url(#moonGradient)" opacity="0.2"/>
  <circle cx="600" cy="200" r="100" fill="url(#moonGradient)" opacity="0.1"/>
  
  <!-- Stars -->
  <circle cx="100" cy="80" r="2" fill="url(#starGradient)" opacity="0.9"/>
  <circle cx="200" cy="120" r="1.5" fill="url(#starGradient)" opacity="0.8"/>
  <circle cx="350" cy="100" r="2.5" fill="url(#starGradient)" opacity="0.9"/>
  <circle cx="450" cy="150" r="1" fill="url(#starGradient)" opacity="0.7"/>
  <circle cx="750" cy="130" r="2" fill="url(#starGradient)" opacity="0.8"/>
  <circle cx="150" cy="300" r="1.5" fill="url(#starGradient)" opacity="0.6"/>
  <circle cx="300" cy="350" r="2" fill="url(#starGradient)" opacity="0.8"/>
  <circle cx="500" cy="400" r="1" fill="url(#starGradient)" opacity="0.7"/>
  <circle cx="700" cy="380" r="1.5" fill="url(#starGradient)" opacity="0.8"/>
  <circle cx="80" cy="500" r="2" fill="url(#starGradient)" opacity="0.9"/>
  <circle cx="250" cy="550" r="1.5" fill="url(#starGradient)" opacity="0.7"/>
  <circle cx="400" cy="600" r="1" fill="url(#starGradient)" opacity="0.6"/>
  <circle cx="650" cy="650" r="2" fill="url(#starGradient)" opacity="0.8"/>
  <circle cx="120" cy="750" r="1.5" fill="url(#starGradient)" opacity="0.7"/>
  <circle cx="350" cy="800" r="2" fill="url(#starGradient)" opacity="0.9"/>
  <circle cx="550" cy="850" r="1" fill="url(#starGradient)" opacity="0.6"/>
  <circle cx="750" cy="900" r="1.5" fill="url(#starGradient)" opacity="0.8"/>
  <circle cx="180" cy="950" r="2" fill="url(#starGradient)" opacity="0.7"/>
  <circle cx="480" cy="1000" r="1.5" fill="url(#starGradient)" opacity="0.8"/>
  <circle cx="680" cy="1050" r="1" fill="url(#starGradient)" opacity="0.6"/>
  
  <!-- Constellation lines -->
  <path d="M100,80 L200,120 L350,100" stroke="#E8EAF6" stroke-width="0.5" opacity="0.4"/>
  <path d="M300,350 L400,600 L550,850" stroke="#E8EAF6" stroke-width="0.5" opacity="0.3"/>
  <path d="M650,650 L750,900 L480,1000" stroke="#E8EAF6" stroke-width="0.5" opacity="0.3"/>
  
  <!-- Twinkling effect (small crosses) -->
  <path d="M98,80 L102,80 M100,78 L100,82" stroke="#FFFFFF" stroke-width="0.5" opacity="0.8"/>
  <path d="M348,100 L352,100 M350,98 L350,102" stroke="#FFFFFF" stroke-width="0.5" opacity="0.9"/>
  <path d="M648,650 L652,650 M650,648 L650,652" stroke="#FFFFFF" stroke-width="0.5" opacity="0.8"/>
  <path d="M348,800 L352,800 M350,798 L350,802" stroke="#FFFFFF" stroke-width="0.5" opacity="0.9"/>
  
  <!-- Cloud wisps -->
  <ellipse cx="200" cy="400" rx="80" ry="15" fill="#7986CB" opacity="0.2" transform="rotate(-15 200 400)"/>
  <ellipse cx="500" cy="500" rx="100" ry="20" fill="#7986CB" opacity="0.15" transform="rotate(10 500 500)"/>
  <ellipse cx="300" cy="700" rx="60" ry="12" fill="#7986CB" opacity="0.18" transform="rotate(-20 300 700)"/>
</svg>