<svg width="800" height="1200" xmlns="http://www.w3.org/2000/svg">
  <defs>
    <linearGradient id="oceanGradient" x1="0%" y1="0%" x2="100%" y2="100%">
      <stop offset="0%" style="stop-color:#00BCD4;stop-opacity:1" />
      <stop offset="50%" style="stop-color:#0097A7;stop-opacity:0.8" />
      <stop offset="100%" style="stop-color:#006064;stop-opacity:0.6" />
    </linearGradient>
    <pattern id="wavePattern" patternUnits="userSpaceOnUse" width="200" height="100">
      <path d="M0,50 Q50,20 100,50 T200,50" stroke="#4DD0E1" stroke-width="2" fill="none" opacity="0.3"/>
      <path d="M0,70 Q50,40 100,70 T200,70" stroke="#26C6DA" stroke-width="1.5" fill="none" opacity="0.2"/>
    </pattern>
    <radialGradient id="bubbleGradient" cx="50%" cy="50%" r="50%">
      <stop offset="0%" style="stop-color:#E0F7FA;stop-opacity:0.8" />
      <stop offset="100%" style="stop-color:#00BCD4;stop-opacity:0.1" />
    </radialGradient>
  </defs>
  
  <!-- Base ocean gradient -->
  <rect width="800" height="1200" fill="url(#oceanGradient)"/>
  
  <!-- Wave patterns -->
  <rect width="800" height="1200" fill="url(#wavePattern)" opacity="0.4"/>
  
  <!-- Floating bubbles -->
  <circle cx="100" cy="150" r="15" fill="url(#bubbleGradient)" opacity="0.6"/>
  <circle cx="300" cy="100" r="25" fill="url(#bubbleGradient)" opacity="0.4"/>
  <circle cx="150" cy="300" r="20" fill="url(#bubbleGradient)" opacity="0.5"/>
  <circle cx="500" cy="200" r="30" fill="url(#bubbleGradient)" opacity="0.3"/>
  <circle cx="650" cy="350" r="18" fill="url(#bubbleGradient)" opacity="0.7"/>
  <circle cx="200" cy="500" r="22" fill="url(#bubbleGradient)" opacity="0.4"/>
  <circle cx="450" cy="450" r="28" fill="url(#bubbleGradient)" opacity="0.5"/>
  <circle cx="700" cy="600" r="16" fill="url(#bubbleGradient)" opacity="0.6"/>
  <circle cx="80" cy="700" r="24" fill="url(#bubbleGradient)" opacity="0.3"/>
  <circle cx="350" cy="800" r="20" fill="url(#bubbleGradient)" opacity="0.5"/>
  <circle cx="600" cy="900" r="26" fill="url(#bubbleGradient)" opacity="0.4"/>
  <circle cx="120" cy="1000" r="18" fill="url(#bubbleGradient)" opacity="0.6"/>
  
  <!-- Large decorative waves -->
  <path d="M0,400 Q200,350 400,400 T800,400" stroke="#4DD0E1" stroke-width="3" fill="none" opacity="0.3"/>
  <path d="M0,800 Q200,750 400,800 T800,800" stroke="#26C6DA" stroke-width="4" fill="none" opacity="0.2"/>
</svg>